<svg height="512pt" viewBox="0 -31 512 512" width="512pt" xmlns="http://www.w3.org/2000/svg"><path d="m190.832031 292.042969-42.6875-4.628907-36.371093 72.726563h-35.742188c-41.371094 0-76.03125 33.660156-76.03125 75.03125v15.003906h175.339844l42.335937-84.683593zm0 0" fill="#3e322e"/><path d="m138.074219 180.070312h-17.027344c-33.101563 0-60.023437-26.917968-60.023437-60.023437h30.011718c0 16.542969 13.46875 30.011719 30.011719 30.011719h17.027344zm0 0" fill="#ffda2d"/><path d="m116.007812 210.300781c-30.832031 2.550781-54.984374 28.828125-54.984374 59.804688 0 33.105469 26.921874 60.023437 60.023437 60.023437 21.03125 0 40.796875-11.238281 51.582031-29.324218zm0 0" fill="#725d57"/><path d="m512 127.851562-135.550781 91.234376-60.324219 33.3125-120.347656 66.328124c-33.613282-1.800781-63.625-20.105468-80.433594-49.21875-13.804688-23.710937-16.804688-52.222656-8.699219-78.332031 8.101563-26.109375 26.707031-47.71875 51.316407-59.421875l158.164062-75.933594 122.046875-55.820312zm0 0" fill="#53433f"/><path d="m512 127.851562-135.550781 91.234376-60.324219 33.3125v-196.578126l122.046875-55.820312zm0 0" fill="#3e322e"/><path d="m301.117188 195.078125h30.011718v90.035156h-30.011718zm0 0" fill="#53433f"/><path d="m301.117188 345.136719h30.011718v90.035156h-30.011718zm0 0" fill="#53433f"/><path d="m241.84375 219.621094 63.671875 63.671875-21.21875 21.21875-63.671875-63.671875zm0 0" fill="#53433f"/><path d="m347.953125 325.730469 63.671875 63.671875-21.21875 21.21875-63.671875-63.671875zm0 0" fill="#3e322e"/><path d="m196.078125 300.117188h90.035156v30.011718h-90.035156zm0 0" fill="#53433f"/><path d="m346.136719 300.117188h90.035156v30.011718h-90.035156zm0 0" fill="#3e322e"/><path d="m284.296875 325.730469 21.21875 21.21875-63.671875 63.671875-21.21875-21.21875zm0 0" fill="#53433f"/><path d="m390.40625 219.617188 21.21875 21.21875-63.671875 63.671874-21.21875-21.21875zm0 0" fill="#3e322e"/><g fill="#ffda2d"><path d="m61.023438 60.023438h30.011718v30.011718h-30.011718zm0 0"/><path d="m31.011719 90.035156h30.011719v30.011719h-30.011719zm0 0"/><path d="m91.035156 90.035156h30.011719v30.011719h-30.011719zm0 0"/></g><path d="m316.125 195.078125h15.003906v90.035156h-15.003906zm0 0" fill="#3e322e"/><path d="m316.125 345.136719h15.003906v90.035156h-15.003906zm0 0" fill="#3e322e"/><path d="m316.125 180.070312c-74.429688 0-135.054688 60.625-135.054688 135.054688 0 74.425781 60.625 135.050781 135.054688 135.050781 74.425781 0 135.050781-60.625 135.050781-135.050781 0-74.429688-60.625-135.054688-135.050781-135.054688zm0 240.09375c-57.921875 0-105.042969-47.117187-105.042969-105.039062 0-57.925781 47.121094-105.042969 105.042969-105.042969s105.039062 47.117188 105.039062 105.042969c0 57.921875-47.117187 105.039062-105.039062 105.039062zm0 0" fill="#725d57"/><path d="m451.175781 315.125c0 74.425781-60.625 135.050781-135.050781 135.050781v-30.011719c57.921875 0 105.039062-47.117187 105.039062-105.039062 0-57.925781-47.117187-105.042969-105.039062-105.042969v-30.011719c74.425781 0 135.050781 60.625 135.050781 135.054688zm0 0" fill="#53433f"/><path d="m316.125 270.105469c-24.910156 0-45.019531 20.109375-45.019531 45.019531 0 24.90625 20.109375 45.015625 45.019531 45.015625s45.015625-20.109375 45.015625-45.015625c0-24.910156-20.105469-45.019531-45.015625-45.019531zm0 0" fill="#725d57"/><path d="m316.125 360.140625v-90.035156c24.910156 0 45.015625 20.109375 45.015625 45.019531 0 24.90625-20.105469 45.015625-45.015625 45.015625zm0 0" fill="#53433f"/></svg>